<?xml version="1.0" encoding="UTF-8"?>
<svg id="Layer_1" data-name="Layer 1" xmlns="http://www.w3.org/2000/svg" xmlns:xlink="http://www.w3.org/1999/xlink" viewBox="0 0 1190.55 841.89">
  <defs>
    <style>
      .cls-1, .cls-2, .cls-3 {
        fill: none;
      }

      .cls-4 {
        opacity: .5;
      }

      .cls-5 {
        fill: #652a16;
      }

      .cls-2 {
        stroke-width: 20px;
      }

      .cls-2, .cls-3 {
        stroke: #d7d0bd;
        stroke-linecap: round;
        stroke-miterlimit: 10;
      }

      .cls-3 {
        stroke-width: 22px;
      }

      .cls-6 {
        clip-path: url(#clippath);
      }
    </style>
    <clipPath id="clippath">
      <rect class="cls-1" x="-3.51" y=".3" width="1195.92" height="841.89"/>
    </clipPath>
  </defs>
  <g class="cls-6">
    <rect class="cls-5" x="-3.51" y=".3" width="1195.92" height="841.89"/>
    <g class="cls-4">
      <line class="cls-2" x1="167.37" y1="197.59" x2="308.14" y2="197.59"/>
      <line class="cls-2" x1="237.76" y1="197.59" x2="237.76" y2="302.06"/>
      <ellipse class="cls-3" cx="196.88" cy="260.51" rx="36.74" ry="20.57"/>
      <ellipse class="cls-3" cx="278.64" cy="260.51" rx="36.74" ry="20.57"/>
    </g>
    <g class="cls-4">
      <line class="cls-2" x1="171.86" y1="435.69" x2="312.62" y2="435.69"/>
      <line class="cls-2" x1="242.24" y1="435.69" x2="242.24" y2="540.16"/>
      <ellipse class="cls-3" cx="201.36" cy="498.62" rx="36.74" ry="20.57"/>
      <ellipse class="cls-3" cx="283.12" cy="498.62" rx="36.74" ry="20.57"/>
    </g>
    <g class="cls-4">
      <line class="cls-2" x1="176.34" y1="673.8" x2="317.1" y2="673.8"/>
      <line class="cls-2" x1="246.72" y1="673.8" x2="246.72" y2="778.27"/>
      <ellipse class="cls-3" cx="205.84" cy="736.72" rx="36.74" ry="20.57"/>
      <ellipse class="cls-3" cx="287.6" cy="736.72" rx="36.74" ry="20.57"/>
    </g>
    <g class="cls-4">
      <line class="cls-2" x1="-76.48" y1="83.88" x2="64.28" y2="83.88"/>
      <line class="cls-2" x1="-6.1" y1="83.88" x2="-6.1" y2="188.35"/>
      <ellipse class="cls-3" cx="-46.98" cy="146.81" rx="36.74" ry="20.57"/>
      <ellipse class="cls-3" cx="34.78" cy="146.81" rx="36.74" ry="20.57"/>
    </g>
    <g class="cls-4">
      <line class="cls-2" x1="-73.54" y1="315.15" x2="67.23" y2="315.15"/>
      <line class="cls-2" x1="-3.15" y1="315.15" x2="-3.15" y2="419.62"/>
      <ellipse class="cls-3" cx="-44.03" cy="378.07" rx="36.74" ry="20.57"/>
      <ellipse class="cls-3" cx="37.73" cy="378.07" rx="36.74" ry="20.57"/>
    </g>
    <g class="cls-4">
      <line class="cls-2" x1="-73.54" y1="547.7" x2="67.23" y2="547.7"/>
      <line class="cls-2" x1="-3.15" y1="547.7" x2="-3.15" y2="652.17"/>
      <ellipse class="cls-3" cx="-44.03" cy="610.63" rx="36.74" ry="20.57"/>
      <ellipse class="cls-3" cx="37.73" cy="610.63" rx="36.74" ry="20.57"/>
    </g>
    <g class="cls-4">
      <line class="cls-2" x1="1121.35" y1="190.86" x2="1262.11" y2="190.86"/>
      <line class="cls-2" x1="1191.73" y1="190.86" x2="1191.73" y2="295.33"/>
      <ellipse class="cls-3" cx="1150.85" cy="253.79" rx="36.74" ry="20.57"/>
      <ellipse class="cls-3" cx="1232.61" cy="253.79" rx="36.74" ry="20.57"/>
    </g>
    <g class="cls-4">
      <line class="cls-2" x1="1119.87" y1="428.97" x2="1260.63" y2="428.97"/>
      <line class="cls-2" x1="1190.25" y1="428.97" x2="1190.25" y2="533.44"/>
      <ellipse class="cls-3" cx="1149.37" cy="491.9" rx="36.74" ry="20.57"/>
      <ellipse class="cls-3" cx="1231.13" cy="491.9" rx="36.74" ry="20.57"/>
    </g>
    <g class="cls-4">
      <line class="cls-2" x1="1120.37" y1="669.06" x2="1261.14" y2="669.06"/>
      <line class="cls-2" x1="1190.75" y1="669.06" x2="1190.75" y2="773.54"/>
      <ellipse class="cls-3" cx="1149.88" cy="731.99" rx="36.74" ry="20.57"/>
      <ellipse class="cls-3" cx="1231.63" cy="731.99" rx="36.74" ry="20.57"/>
    </g>
    <g class="cls-4">
      <line class="cls-2" x1="408.06" y1="69.87" x2="548.82" y2="69.87"/>
      <line class="cls-2" x1="478.44" y1="69.87" x2="478.44" y2="174.34"/>
      <ellipse class="cls-3" cx="437.56" cy="132.79" rx="36.74" ry="20.57"/>
      <ellipse class="cls-3" cx="519.32" cy="132.79" rx="36.74" ry="20.57"/>
    </g>
    <g class="cls-4">
      <line class="cls-2" x1="412.54" y1="307.97" x2="553.3" y2="307.97"/>
      <line class="cls-2" x1="482.92" y1="307.97" x2="482.92" y2="412.45"/>
      <ellipse class="cls-3" cx="442.04" cy="370.9" rx="36.74" ry="20.57"/>
      <ellipse class="cls-3" cx="523.8" cy="370.9" rx="36.74" ry="20.57"/>
    </g>
    <g class="cls-4">
      <line class="cls-2" x1="417.02" y1="546.08" x2="557.78" y2="546.08"/>
      <line class="cls-2" x1="487.4" y1="546.08" x2="487.4" y2="650.55"/>
      <ellipse class="cls-3" cx="446.52" cy="609.01" rx="36.74" ry="20.57"/>
      <ellipse class="cls-3" cx="528.28" cy="609.01" rx="36.74" ry="20.57"/>
    </g>
    <g class="cls-4">
      <line class="cls-2" x1="651" y1="186.67" x2="791.76" y2="186.67"/>
      <line class="cls-2" x1="721.38" y1="186.67" x2="721.38" y2="291.14"/>
      <ellipse class="cls-3" cx="680.5" cy="249.59" rx="36.74" ry="20.57"/>
      <ellipse class="cls-3" cx="762.26" cy="249.59" rx="36.74" ry="20.57"/>
    </g>
    <g class="cls-4">
      <line class="cls-2" x1="655.48" y1="424.77" x2="796.24" y2="424.77"/>
      <line class="cls-2" x1="725.86" y1="424.77" x2="725.86" y2="529.24"/>
      <ellipse class="cls-3" cx="684.98" cy="487.7" rx="36.74" ry="20.57"/>
      <ellipse class="cls-3" cx="766.74" cy="487.7" rx="36.74" ry="20.57"/>
    </g>
    <g class="cls-4">
      <line class="cls-2" x1="659.96" y1="662.88" x2="800.72" y2="662.88"/>
      <line class="cls-2" x1="730.34" y1="662.88" x2="730.34" y2="767.35"/>
      <ellipse class="cls-3" cx="689.46" cy="725.81" rx="36.74" ry="20.57"/>
      <ellipse class="cls-3" cx="771.22" cy="725.81" rx="36.74" ry="20.57"/>
    </g>
    <g class="cls-4">
      <line class="cls-2" x1="903.28" y1="72.2" x2="1044.05" y2="72.2"/>
      <line class="cls-2" x1="973.67" y1="72.2" x2="973.67" y2="176.67"/>
      <ellipse class="cls-3" cx="932.79" cy="135.13" rx="36.74" ry="20.57"/>
      <ellipse class="cls-3" cx="1014.55" cy="135.13" rx="36.74" ry="20.57"/>
    </g>
    <g class="cls-4">
      <line class="cls-2" x1="907.77" y1="310.31" x2="1048.53" y2="310.31"/>
      <line class="cls-2" x1="978.15" y1="310.31" x2="978.15" y2="414.78"/>
      <ellipse class="cls-3" cx="937.27" cy="373.24" rx="36.74" ry="20.57"/>
      <ellipse class="cls-3" cx="1019.03" cy="373.24" rx="36.74" ry="20.57"/>
    </g>
    <g class="cls-4">
      <line class="cls-2" x1="912.25" y1="548.42" x2="1053.01" y2="548.42"/>
      <line class="cls-2" x1="982.63" y1="548.42" x2="982.63" y2="652.89"/>
      <ellipse class="cls-3" cx="941.75" cy="611.34" rx="36.74" ry="20.57"/>
      <ellipse class="cls-3" cx="1023.51" cy="611.34" rx="36.74" ry="20.57"/>
    </g>
  </g>
</svg>